<svg width="36" height="35" viewBox="0 0 36 35" fill="none" xmlns="http://www.w3.org/2000/svg">
<path d="M13.9441 31.1111C15.1522 31.1111 16.1316 30.1317 16.1316 28.9236C16.1316 27.7155 15.1522 26.7361 13.9441 26.7361C12.7359 26.7361 11.7566 27.7155 11.7566 28.9236C11.7566 30.1317 12.7359 31.1111 13.9441 31.1111Z" fill="#494949"/>
<path d="M27.2343 31.1111C28.4425 31.1111 29.4218 30.1317 29.4218 28.9236C29.4218 27.7155 28.4425 26.7361 27.2343 26.7361C26.0262 26.7361 25.0468 27.7155 25.0468 28.9236C25.0468 30.1317 26.0262 31.1111 27.2343 31.1111Z" fill="#494949"/>
<path d="M33.1455 5.22083C33.055 5.10931 32.9409 5.01921 32.8115 4.95701C32.6821 4.89481 32.5404 4.86206 32.3968 4.86111H12.1552L12.7871 6.80556H31.1232L28.5274 18.4722H13.9441L9.50101 4.40417C9.45295 4.25489 9.36949 4.11946 9.25776 4.00942C9.14603 3.89938 9.00933 3.818 8.85934 3.77222L4.87323 2.54722C4.75066 2.50956 4.62188 2.49641 4.49423 2.50851C4.36658 2.52062 4.24256 2.55775 4.12926 2.61779C3.90044 2.73904 3.72916 2.94622 3.65309 3.19375C3.57702 3.44129 3.60241 3.7089 3.72365 3.93772C3.8449 4.16654 4.05208 4.33782 4.29962 4.41389L7.7899 5.48333L12.2524 19.5806L10.658 20.8833L10.5316 21.0097C10.1372 21.4642 9.91362 22.042 9.89942 22.6436C9.88522 23.2452 10.0813 23.833 10.4538 24.3056C10.7188 24.6278 11.0555 24.8836 11.437 25.0524C11.8186 25.2212 12.2343 25.2984 12.651 25.2778H28.8774C29.1352 25.2778 29.3825 25.1753 29.5649 24.993C29.7472 24.8107 29.8496 24.5634 29.8496 24.3056C29.8496 24.0477 29.7472 23.8004 29.5649 23.6181C29.3825 23.4358 29.1352 23.3333 28.8774 23.3333H12.4955C12.3835 23.3295 12.2744 23.2969 12.1788 23.2386C12.0831 23.1803 12.0041 23.0983 11.9493 23.0006C11.8946 22.9029 11.866 22.7927 11.8663 22.6806C11.8666 22.5686 11.8958 22.4586 11.951 22.3611L14.2941 20.4167H29.3052C29.5299 20.4222 29.7496 20.3496 29.9269 20.2113C30.1041 20.0731 30.228 19.8776 30.2774 19.6583L33.3593 6.04722C33.3889 5.90228 33.385 5.75251 33.3479 5.6093C33.3109 5.46609 33.2416 5.33323 33.1455 5.22083V5.22083Z" fill="#494949"/>
</svg>
