<svg width="104" height="12" viewBox="0 0 104 12" fill="none" xmlns="http://www.w3.org/2000/svg">
<path d="M7.09739 9.24087H2.94L2.06957 11.7365H0.133913L4.18783 1.0113H5.85565L9.91565 11.7365H7.97391L7.09739 9.24087ZM3.46348 7.73739H6.57391L5.01565 3.28783L3.46348 7.73739ZM17.4445 8.97304C17.4445 8.50232 17.2781 8.13913 16.9453 7.88348C16.6167 7.62783 16.0201 7.37014 15.1558 7.11043C14.2914 6.85072 13.6036 6.56058 13.0923 6.24C12.1143 5.62725 11.6253 4.8258 11.6253 3.83565C11.6253 2.9713 11.9764 2.25913 12.6784 1.69913C13.3845 1.13913 14.3016 0.85913 15.4297 0.85913C16.1764 0.85913 16.8419 0.997101 17.4262 1.27304C18.0106 1.54899 18.4691 1.94058 18.8019 2.44783C19.1346 2.95507 19.301 3.51913 19.301 4.14H17.4445C17.4445 3.58 17.268 3.14174 16.9149 2.82522C16.5659 2.5087 16.0648 2.35043 15.4114 2.35043C14.8027 2.35043 14.33 2.48029 13.9932 2.74C13.6564 2.99971 13.488 3.3629 13.488 3.82956C13.488 4.22319 13.6685 4.55188 14.0297 4.81565C14.3949 5.07942 14.9955 5.33507 15.8314 5.58261C16.6674 5.83014 17.3369 6.11217 17.8401 6.4287C18.3474 6.74522 18.7187 7.10841 18.954 7.51826C19.1935 7.92812 19.3132 8.40899 19.3132 8.96087C19.3132 9.85362 18.9703 10.5638 18.2845 11.0913C17.5987 11.6188 16.6694 11.8826 15.4967 11.8826C14.7175 11.8826 14.0033 11.7386 13.354 11.4504C12.7048 11.1664 12.1996 10.7707 11.8384 10.2635C11.4772 9.75623 11.2967 9.1658 11.2967 8.49217H13.1593C13.1593 9.10493 13.3601 9.57768 13.7619 9.91043C14.1636 10.2432 14.7419 10.4096 15.4967 10.4096C16.1419 10.4096 16.6268 10.2797 16.9514 10.02C17.2801 9.75623 17.4445 9.40725 17.4445 8.97304ZM30.1656 11.7365H28.303V6.97043H23.5065V11.7365H21.6439V1.0113H23.5065V5.47304H28.303V1.0113H30.1656V11.7365ZM38.6687 8.97304C38.6687 8.50232 38.5023 8.13913 38.1696 7.88348C37.8409 7.62783 37.2444 7.37014 36.38 7.11043C35.5157 6.85072 34.8278 6.56058 34.3165 6.24C33.3386 5.62725 32.8496 4.8258 32.8496 3.83565C32.8496 2.9713 33.2006 2.25913 33.9026 1.69913C34.6087 1.13913 35.5258 0.85913 36.6539 0.85913C37.4006 0.85913 38.0661 0.997101 38.6504 1.27304C39.2348 1.54899 39.6933 1.94058 40.0261 2.44783C40.3588 2.95507 40.5252 3.51913 40.5252 4.14H38.6687C38.6687 3.58 38.4922 3.14174 38.1391 2.82522C37.7901 2.5087 37.289 2.35043 36.6357 2.35043C36.027 2.35043 35.5542 2.48029 35.2174 2.74C34.8806 2.99971 34.7122 3.3629 34.7122 3.82956C34.7122 4.22319 34.8928 4.55188 35.2539 4.81565C35.6191 5.07942 36.2197 5.33507 37.0557 5.58261C37.8916 5.83014 38.5612 6.11217 39.0644 6.4287C39.5716 6.74522 39.9429 7.10841 40.1783 7.51826C40.4177 7.92812 40.5374 8.40899 40.5374 8.96087C40.5374 9.85362 40.1945 10.5638 39.5087 11.0913C38.8229 11.6188 37.8936 11.8826 36.7209 11.8826C35.9417 11.8826 35.2275 11.7386 34.5783 11.4504C33.929 11.1664 33.4238 10.7707 33.0626 10.2635C32.7015 9.75623 32.5209 9.1658 32.5209 8.49217H34.3835C34.3835 9.10493 34.5844 9.57768 34.9861 9.91043C35.3878 10.2432 35.9661 10.4096 36.7209 10.4096C37.3661 10.4096 37.851 10.2797 38.1757 10.02C38.5044 9.75623 38.6687 9.40725 38.6687 8.97304ZM50.6229 2.5087H47.275V11.7365H45.4246V2.5087H42.1072V1.0113H50.6229V2.5087ZM90.0265 7.60348H87.9448V11.7365H86.0821V1.0113H89.8561C91.0937 1.0113 92.0494 1.28928 92.723 1.84522C93.3966 2.3971 93.7334 3.19855 93.7334 4.24957C93.7334 4.96783 93.559 5.56841 93.21 6.0513C92.865 6.5342 92.3821 6.90754 91.7613 7.1713L94.1717 11.6391V11.7365H92.1752L90.0265 7.60348ZM87.9448 6.10609H89.8621C90.4911 6.10609 90.9821 5.94783 91.3352 5.6313C91.6882 5.31478 91.8648 4.88058 91.8648 4.3287C91.8648 3.75652 91.7004 3.3142 91.3717 3.00174C91.0471 2.68522 90.5621 2.52087 89.9169 2.5087H87.9448V6.10609ZM102.472 6.94609H98.0647V10.2513H103.22V11.7365H96.2021V1.0113H103.166V2.5087H98.0647V5.47304H102.472V6.94609Z" fill="#494949"/>
<path d="M61.2926 6.65391C61.2926 7.70493 61.11 8.62812 60.7448 9.42348C60.3836 10.2148 59.8642 10.8214 59.1865 11.2435C58.5129 11.6696 57.7358 11.8826 56.8552 11.8826C55.9868 11.8826 55.2117 11.6696 54.53 11.2435C53.8482 10.8214 53.3227 10.2168 52.9535 9.42957C52.5842 8.64232 52.3955 7.73536 52.3874 6.7087V6.10609C52.3874 5.05913 52.572 4.13594 52.9413 3.33652C53.3146 2.5371 53.8381 1.92435 54.5117 1.49826C55.1894 1.07217 55.9645 0.85913 56.8369 0.85913C57.7135 0.85913 58.4885 1.07014 59.1622 1.49217C59.8398 1.91014 60.3633 2.51478 60.7326 3.30609C61.1019 4.09333 61.2885 5.01043 61.2926 6.05739V6.65391ZM59.43 6.09391C59.43 4.90493 59.2048 3.99391 58.7543 3.36087C58.3039 2.72783 57.6668 2.4113 56.843 2.4113C56.0355 2.4113 55.4045 2.72783 54.95 3.36087C54.4955 3.98985 54.2642 4.88058 54.2561 6.03304V6.65391C54.2561 7.83072 54.4853 8.74174 54.9439 9.38696C55.4024 10.0281 56.0395 10.3487 56.8552 10.3487C57.679 10.3487 58.314 10.0362 58.7604 9.4113C59.2068 8.78232 59.43 7.86319 59.43 6.65391V6.09391ZM72.4106 6.65391C72.4106 7.70493 72.2279 8.62812 71.8627 9.42348C71.5016 10.2148 70.9821 10.8214 70.3045 11.2435C69.6308 11.6696 68.8537 11.8826 67.9732 11.8826C67.1048 11.8826 66.3297 11.6696 65.6479 11.2435C64.9662 10.8214 64.4407 10.2168 64.0714 9.42957C63.7021 8.64232 63.5135 7.73536 63.5053 6.7087V6.10609C63.5053 5.05913 63.69 4.13594 64.0593 3.33652C64.4326 2.5371 64.9561 1.92435 65.6297 1.49826C66.3074 1.07217 67.0824 0.85913 67.9549 0.85913C68.8314 0.85913 69.6065 1.07014 70.2801 1.49217C70.9578 1.91014 71.4813 2.51478 71.8506 3.30609C72.2198 4.09333 72.4065 5.01043 72.4106 6.05739V6.65391ZM70.5479 6.09391C70.5479 4.90493 70.3227 3.99391 69.8723 3.36087C69.4219 2.72783 68.7848 2.4113 67.961 2.4113C67.1535 2.4113 66.5224 2.72783 66.0679 3.36087C65.6135 3.98985 65.3821 4.88058 65.374 6.03304V6.65391C65.374 7.83072 65.6033 8.74174 66.0619 9.38696C66.5204 10.0281 67.1575 10.3487 67.9732 10.3487C68.7969 10.3487 69.432 10.0362 69.8784 9.4113C70.3248 8.78232 70.5479 7.86319 70.5479 6.65391V6.09391ZM83.5285 6.65391C83.5285 7.70493 83.3459 8.62812 82.9807 9.42348C82.6195 10.2148 82.1001 10.8214 81.4224 11.2435C80.7488 11.6696 79.9717 11.8826 79.0911 11.8826C78.2227 11.8826 77.4477 11.6696 76.7659 11.2435C76.0842 10.8214 75.5587 10.2168 75.1894 9.42957C74.8201 8.64232 74.6314 7.73536 74.6233 6.7087V6.10609C74.6233 5.05913 74.8079 4.13594 75.1772 3.33652C75.5506 2.5371 76.074 1.92435 76.7477 1.49826C77.4253 1.07217 78.2004 0.85913 79.0729 0.85913C79.9494 0.85913 80.7245 1.07014 81.3981 1.49217C82.0758 1.91014 82.5992 2.51478 82.9685 3.30609C83.3378 4.09333 83.5245 5.01043 83.5285 6.05739V6.65391ZM81.6659 6.09391C81.6659 4.90493 81.4407 3.99391 80.9903 3.36087C80.5398 2.72783 79.9027 2.4113 79.079 2.4113C78.2714 2.4113 77.6404 2.72783 77.1859 3.36087C76.7314 3.98985 76.5001 4.88058 76.492 6.03304V6.65391C76.492 7.83072 76.7213 8.74174 77.1798 9.38696C77.6384 10.0281 78.2755 10.3487 79.0911 10.3487C79.9149 10.3487 80.55 10.0362 80.9964 9.4113C81.4427 8.78232 81.6659 7.86319 81.6659 6.65391V6.09391Z" fill="#0687AF"/>
</svg>
