<svg width="16" height="15" viewBox="0 0 16 15" fill="none" xmlns="http://www.w3.org/2000/svg">
<path d="M15.4586 3.1634L9.83363 0.0696537C9.75057 0.0239599 9.65731 0 9.56251 0C9.46771 0 9.37444 0.0239599 9.29138 0.0696537L3.66638 3.1634C3.57819 3.21196 3.50465 3.2833 3.45342 3.36997C3.4022 3.45664 3.37518 3.55548 3.37518 3.65615C3.37518 3.75683 3.4022 3.85566 3.45342 3.94233C3.50465 4.02901 3.57819 4.10035 3.66638 4.1489L9.00001 7.08234V13.1118L7.29226 12.1724L6.75001 13.1573L9.29138 14.5552C9.37441 14.6009 9.46769 14.625 9.56251 14.625C9.65733 14.625 9.7506 14.6009 9.83363 14.5552L15.4586 11.4614C15.5469 11.4129 15.6204 11.3415 15.6717 11.2549C15.7229 11.1682 15.75 11.0693 15.75 10.9687V3.65615C15.75 3.55546 15.7229 3.45662 15.6717 3.36994C15.6204 3.28327 15.5469 3.21194 15.4586 3.1634ZM9.56251 1.20478L14.0203 3.65615L9.56251 6.10753L5.1047 3.65615L9.56251 1.20478ZM14.625 10.6362L10.125 13.1112V7.08178L14.625 4.60678V10.6362Z" fill="#81858B"/>
<path d="M4.5 7.31244H0V6.18744H4.5V7.31244ZM5.625 11.8124H1.125V10.6874H5.625V11.8124ZM6.75 9.56244H2.25V8.43744H6.75V9.56244Z" fill="#81858B"/>
</svg>
