<svg width="15" height="13" viewBox="0 0 15 13" fill="none" xmlns="http://www.w3.org/2000/svg">
<path d="M14.7643 3.5217L13.7101 0.35914C13.6734 0.250042 13.6021 0.155947 13.5069 0.0912262C13.4117 0.0265057 13.298 -0.00528257 13.183 0.000716822H1.58698C1.47203 -0.00528257 1.35829 0.0265057 1.26311 0.0912262C1.16793 0.155947 1.09656 0.250042 1.05988 0.35914L0.00569543 3.5217C-0.00189848 3.57766 -0.00189848 3.6344 0.00569543 3.69037V6.85292C0.00569543 6.99272 0.0612283 7.12679 0.160077 7.22564C0.258927 7.32449 0.392995 7.38002 0.532789 7.38002H1.05988V12.6509H2.11407V7.38002H5.27663V12.6509H13.7101V7.38002H14.2372C14.377 7.38002 14.5111 7.32449 14.6099 7.22564C14.7088 7.12679 14.7643 6.99272 14.7643 6.85292V3.69037C14.7719 3.6344 14.7719 3.57766 14.7643 3.5217ZM12.6559 11.5968H6.33081V7.38002H12.6559V11.5968ZM13.7101 6.32583H11.6017V4.21746H10.5476V6.32583H7.91209V4.21746H6.85791V6.32583H4.22244V4.21746H3.16825V6.32583H1.05988V3.7747L1.96648 1.0549H12.8035L13.7101 3.7747V6.32583Z" fill="#81858B"/>
</svg>
