<svg width="16" height="19" viewBox="0 0 16 19" fill="none" xmlns="http://www.w3.org/2000/svg">
<path d="M7.75 0.125L0 2.70833V10.4583C0 14.739 3.46934 18.2083 7.75 18.2083C12.0307 18.2083 15.5 14.739 15.5 10.4583V2.70833L7.75 0.125ZM14.0469 10.4583C14.0469 13.9357 11.2274 16.7552 7.75 16.7552C4.27259 16.7552 1.45312 13.9357 1.45312 10.4583V3.79818L7.75 1.57813L14.0469 3.79818V10.4583Z" fill="#81858B"/>
<path d="M5.05362 8.4218C4.98628 8.35415 4.90623 8.30047 4.81809 8.26384C4.72994 8.22721 4.63543 8.20836 4.53998 8.20836C4.44453 8.20836 4.35001 8.22721 4.26187 8.26384C4.17372 8.30047 4.09368 8.35415 4.02634 8.4218C3.95869 8.48914 3.90501 8.56918 3.86838 8.65733C3.83175 8.74547 3.8129 8.83998 3.8129 8.93544C3.8129 9.03089 3.83175 9.1254 3.86838 9.21355C3.90501 9.30169 3.95869 9.38174 4.02634 9.44908L6.63793 12.0607L6.68031 12.103C6.74401 12.1669 6.81967 12.2175 6.90296 12.252C6.98624 12.2866 7.07553 12.3044 7.16569 12.3044C7.25586 12.3044 7.34515 12.2866 7.42843 12.252C7.51172 12.2175 7.58738 12.1669 7.65108 12.103L12.1618 7.59231C12.2256 7.52861 12.2763 7.45295 12.3108 7.36966C12.3454 7.28637 12.3631 7.19709 12.3631 7.10692C12.3631 7.01675 12.3454 6.92747 12.3108 6.84418C12.2763 6.76089 12.2256 6.68524 12.1618 6.62154L12.1053 6.56503C12.0416 6.50121 11.966 6.45058 11.8827 6.41603C11.7994 6.38149 11.7101 6.36371 11.6199 6.36371C11.5298 6.36371 11.4405 6.38149 11.3572 6.41603C11.2739 6.45058 11.1982 6.50121 11.1345 6.56503L7.16469 10.5329L5.05362 8.4218Z" fill="#81858B"/>
</svg>
