<svg width="35" height="28" viewBox="0 0 35 28" fill="none" xmlns="http://www.w3.org/2000/svg">
<path d="M17.1155 14L4.43348 8.93402L5.21548 27.6H1.81548L2.63148 8.20302L0.115479 7.20002L17.1155 0.400024L34.1155 7.20002L17.1155 14ZM17.1155 5.50002C16.1805 5.50002 15.4155 5.87402 15.4155 6.35002C15.4155 6.82602 16.1805 7.20002 17.1155 7.20002C18.0505 7.20002 18.8155 6.82602 18.8155 6.35002C18.8155 5.87402 18.0505 5.50002 17.1155 5.50002ZM17.1155 15.7L26.5845 11.909C27.7915 13.507 28.6245 15.428 28.8965 17.519C28.3865 17.451 27.8595 17.4 27.3155 17.4C22.9805 17.4 19.1895 19.729 17.1155 23.197C16.0628 21.4303 14.5693 19.9672 12.7813 18.9511C10.9933 17.9349 8.97206 17.4004 6.91548 17.4C6.37148 17.4 5.84448 17.451 5.33448 17.519C5.60648 15.428 6.43948 13.507 7.64648 11.909L17.1155 15.7Z" fill="#494949"/>
</svg>
