<svg width="21" height="21" viewBox="0 0 21 21" fill="none" xmlns="http://www.w3.org/2000/svg">
<path d="M8.76212 0.5H2.09546C1.80077 0.5 1.51816 0.617063 1.30978 0.825437C1.10141 1.03381 0.984344 1.31643 0.984344 1.61111V8.27778C0.984344 8.57246 1.10141 8.85508 1.30978 9.06345C1.51816 9.27183 1.80077 9.38889 2.09546 9.38889H8.76212C9.05681 9.38889 9.33942 9.27183 9.5478 9.06345C9.75617 8.85508 9.87323 8.57246 9.87323 8.27778V1.61111C9.87323 1.31643 9.75617 1.03381 9.5478 0.825437C9.33942 0.617063 9.05681 0.5 8.76212 0.5ZM7.65101 7.16667H3.20657V2.72222H7.65101V7.16667ZM19.8732 0.5H13.2066C12.9119 0.5 12.6293 0.617063 12.4209 0.825437C12.2125 1.03381 12.0955 1.31643 12.0955 1.61111V8.27778C12.0955 8.57246 12.2125 8.85508 12.4209 9.06345C12.6293 9.27183 12.9119 9.38889 13.2066 9.38889H19.8732C20.1679 9.38889 20.4505 9.27183 20.6589 9.06345C20.8673 8.85508 20.9843 8.57246 20.9843 8.27778V1.61111C20.9843 1.31643 20.8673 1.03381 20.6589 0.825437C20.4505 0.617063 20.1679 0.5 19.8732 0.5ZM18.7621 7.16667H14.3177V2.72222H18.7621V7.16667ZM8.76212 11.6111H2.09546C1.80077 11.6111 1.51816 11.7282 1.30978 11.9365C1.10141 12.1449 0.984344 12.4275 0.984344 12.7222V19.3889C0.984344 19.6836 1.10141 19.9662 1.30978 20.1746C1.51816 20.3829 1.80077 20.5 2.09546 20.5H8.76212C9.05681 20.5 9.33942 20.3829 9.5478 20.1746C9.75617 19.9662 9.87323 19.6836 9.87323 19.3889V12.7222C9.87323 12.4275 9.75617 12.1449 9.5478 11.9365C9.33942 11.7282 9.05681 11.6111 8.76212 11.6111ZM7.65101 18.2778H3.20657V13.8333H7.65101V18.2778ZM16.5399 11.6111C14.0888 11.6111 12.0955 13.6044 12.0955 16.0556C12.0955 18.5067 14.0888 20.5 16.5399 20.5C18.991 20.5 20.9843 18.5067 20.9843 16.0556C20.9843 13.6044 18.991 11.6111 16.5399 11.6111ZM16.5399 18.2778C15.3143 18.2778 14.3177 17.2811 14.3177 16.0556C14.3177 14.83 15.3143 13.8333 16.5399 13.8333C17.7655 13.8333 18.7621 14.83 18.7621 16.0556C18.7621 17.2811 17.7655 18.2778 16.5399 18.2778Z" fill="#494949"/>
</svg>
