<svg width="23" height="17" viewBox="0 0 23 17" fill="none" xmlns="http://www.w3.org/2000/svg">
<path d="M1.64286 7.72599H11.5V9.2713H1.64286V7.72599ZM0 3.86273H8.21429V5.40804H0V3.86273Z" fill="#0687AF"/>
<path d="M22.9335 8.19475L20.4692 2.78619C20.406 2.64717 20.3007 2.52869 20.1665 2.44545C20.0323 2.36221 19.8751 2.31787 19.7143 2.31796H17.25V0.772653C17.25 0.567732 17.1635 0.371205 17.0095 0.226305C16.8554 0.0814044 16.6465 0 16.4286 0H3.28576V1.54531H15.6072V11.2467C15.2329 11.4512 14.9053 11.7233 14.6434 12.0474C14.3814 12.3715 14.1903 12.7412 14.081 13.1351H8.91912C8.71919 12.4067 8.24372 11.772 7.58183 11.3498C6.91994 10.9276 6.11707 10.747 5.32373 10.8418C4.53038 10.9366 3.80102 11.3002 3.27235 11.8647C2.74369 12.4291 2.45203 13.1555 2.45203 13.9077C2.45203 14.66 2.74369 15.3864 3.27235 15.9508C3.80102 16.5152 4.53038 16.8789 5.32373 16.9737C6.11707 17.0685 6.91994 16.8879 7.58183 16.4657C8.24372 16.0435 8.71919 15.4087 8.91912 14.6804H14.081C14.2597 15.3435 14.6683 15.9317 15.2423 16.3518C15.8163 16.7719 16.5228 17 17.25 17C17.9773 17 18.6838 16.7719 19.2578 16.3518C19.8318 15.9317 20.2404 15.3435 20.4191 14.6804H22.1786C22.3965 14.6804 22.6054 14.599 22.7595 14.4541C22.9135 14.3092 23 14.1127 23 13.9077V8.49918C23.0001 8.39451 22.9774 8.29092 22.9335 8.19475ZM5.75005 15.4531C5.42512 15.4531 5.10749 15.3624 4.83733 15.1926C4.56716 15.0228 4.35659 14.7815 4.23225 14.4991C4.1079 14.2167 4.07537 13.906 4.13876 13.6063C4.20215 13.3065 4.35861 13.0312 4.58837 12.8151C4.81813 12.5989 5.11086 12.4518 5.42954 12.3921C5.74823 12.3325 6.07855 12.3631 6.37874 12.4801C6.67893 12.597 6.93551 12.7951 7.11603 13.0492C7.29655 13.3033 7.3929 13.6021 7.3929 13.9077C7.39247 14.3175 7.21924 14.7103 6.91124 15C6.60324 15.2897 6.18563 15.4526 5.75005 15.4531ZM17.25 3.86326H19.1722L20.9333 7.72653H17.25V3.86326ZM17.25 15.4531C16.9251 15.4531 16.6075 15.3624 16.3373 15.1926C16.0672 15.0228 15.8566 14.7815 15.7322 14.4991C15.6079 14.2167 15.5754 13.906 15.6388 13.6063C15.7021 13.3065 15.8586 13.0312 16.0884 12.8151C16.3181 12.5989 16.6109 12.4518 16.9295 12.3921C17.2482 12.3325 17.5785 12.3631 17.8787 12.4801C18.1789 12.597 18.4355 12.7951 18.616 13.0492C18.7965 13.3033 18.8929 13.6021 18.8929 13.9077C18.8925 14.3175 18.7192 14.7103 18.4112 15C18.1032 15.2897 17.6856 15.4526 17.25 15.4531ZM21.3572 13.1351H20.4191C20.2382 12.4733 19.8289 11.8866 19.2553 11.4671C18.6818 11.0477 17.9765 10.819 17.25 10.8171V9.27183H21.3572V13.1351Z" fill="#0687AF"/>
</svg>
