<svg width="21" height="21" viewBox="0 0 21 21" fill="none" xmlns="http://www.w3.org/2000/svg">
<path d="M13.4211 10.8586L8.93672 15.343C8.77276 15.4997 8.55494 15.5876 8.32813 15.5885C8.15875 15.5883 7.99329 15.5376 7.85275 15.4431C7.71222 15.3485 7.60298 15.2143 7.53889 15.0576C7.4748 14.9008 7.45877 14.7285 7.49284 14.5626C7.52691 14.3967 7.60953 14.2446 7.73021 14.1258L10.7518 11.1042H0.854167C0.627628 11.1042 0.410367 11.0142 0.25018 10.854C0.0899923 10.6938 0 10.4765 0 10.25C0 10.0235 0.0899923 9.8062 0.25018 9.64601C0.410367 9.48583 0.627628 9.39583 0.854167 9.39583H10.7518L7.73021 6.37422C7.5688 6.21423 7.47756 5.99667 7.47656 5.7694C7.47556 5.54213 7.56488 5.32378 7.72487 5.16237C7.88486 5.00096 8.10242 4.90972 8.32969 4.90872C8.55695 4.90772 8.77531 4.99704 8.93672 5.15703L13.4211 9.64141C13.5815 9.80335 13.6715 10.0221 13.6715 10.25C13.6715 10.4779 13.5815 10.6966 13.4211 10.8586V10.8586ZM18.7917 0H12.8125C12.586 0 12.3687 0.0899925 12.2085 0.25018C12.0483 0.410367 11.9583 0.627628 11.9583 0.854167C11.9583 1.08071 12.0483 1.29797 12.2085 1.45815C12.3687 1.61834 12.586 1.70833 12.8125 1.70833H18.7917V18.7917H12.8125C12.586 18.7917 12.3687 18.8817 12.2085 19.0418C12.0483 19.202 11.9583 19.4193 11.9583 19.6458C11.9583 19.8724 12.0483 20.0896 12.2085 20.2498C12.3687 20.41 12.586 20.5 12.8125 20.5H18.7917C19.2447 20.5 19.6793 20.32 19.9996 19.9996C20.32 19.6793 20.5 19.2447 20.5 18.7917V1.70833C20.5 1.25526 20.32 0.820734 19.9996 0.500359C19.6793 0.179985 19.2447 0 18.7917 0V0Z" fill="#494949"/>
</svg>
