<svg width="13" height="18" viewBox="0 0 13 18" fill="none" xmlns="http://www.w3.org/2000/svg">
<path d="M10.4 1.125C10.7448 1.125 11.0754 1.24353 11.3192 1.4545C11.563 1.66548 11.7 1.95163 11.7 2.25V15.75C11.7 16.0484 11.563 16.3345 11.3192 16.5455C11.0754 16.7565 10.7448 16.875 10.4 16.875H2.6C2.25522 16.875 1.92456 16.7565 1.68076 16.5455C1.43696 16.3345 1.3 16.0484 1.3 15.75V2.25C1.3 1.95163 1.43696 1.66548 1.68076 1.4545C1.92456 1.24353 2.25522 1.125 2.6 1.125H10.4ZM2.6 0C1.91044 0 1.24912 0.237053 0.761522 0.65901C0.273928 1.08097 0 1.65326 0 2.25V15.75C0 16.3467 0.273928 16.919 0.761522 17.341C1.24912 17.7629 1.91044 18 2.6 18H10.4C11.0896 18 11.7509 17.7629 12.2385 17.341C12.7261 16.919 13 16.3467 13 15.75V2.25C13 1.65326 12.7261 1.08097 12.2385 0.65901C11.7509 0.237053 11.0896 0 10.4 0L2.6 0Z" fill="#81858B"/>
<path d="M6.62496 15.5501C6.97637 15.5501 7.31339 15.4105 7.56187 15.162C7.81036 14.9135 7.94996 14.5765 7.94996 14.2251C7.94996 13.8737 7.81036 13.5367 7.56187 13.2882C7.31339 13.0397 6.97637 12.9001 6.62496 12.9001C6.27355 12.9001 5.93653 13.0397 5.68804 13.2882C5.43956 13.5367 5.29996 13.8737 5.29996 14.2251C5.29996 14.5765 5.43956 14.9135 5.68804 15.162C5.93653 15.4105 6.27355 15.5501 6.62496 15.5501Z" fill="#81858B"/>
</svg>
