<svg width="21" height="21" viewBox="0 0 21 21" fill="none" xmlns="http://www.w3.org/2000/svg">
<path d="M19.3291 16.8883C18.8502 15.7538 18.1551 14.7232 17.2826 13.8541C16.4128 12.9825 15.3825 12.2875 14.2485 11.8076C14.2383 11.8025 14.2282 11.8 14.218 11.7949C15.7998 10.6523 16.8282 8.79121 16.8282 6.69141C16.8282 3.21289 14.0098 0.394531 10.5313 0.394531C7.05277 0.394531 4.23441 3.21289 4.23441 6.69141C4.23441 8.79121 5.26273 10.6523 6.84456 11.7975C6.83441 11.8025 6.82425 11.8051 6.81409 11.8102C5.67659 12.29 4.65589 12.9781 3.77992 13.8566C2.90828 14.7264 2.21333 15.7568 1.73343 16.8908C1.26198 18.001 1.00772 19.1913 0.984408 20.3973C0.98373 20.4244 0.988483 20.4513 0.998388 20.4766C1.00829 20.5018 1.02315 20.5248 1.04208 20.5442C1.06101 20.5636 1.08363 20.579 1.10861 20.5895C1.13359 20.6001 1.16043 20.6055 1.18753 20.6055H2.71097C2.82269 20.6055 2.91156 20.5166 2.91409 20.4074C2.96488 18.4473 3.75199 16.6115 5.14339 15.2201C6.58304 13.7805 8.49495 12.9883 10.5313 12.9883C12.5676 12.9883 14.4795 13.7805 15.9192 15.2201C17.3106 16.6115 18.0977 18.4473 18.1485 20.4074C18.151 20.5191 18.2399 20.6055 18.3516 20.6055H19.875C19.9021 20.6055 19.929 20.6001 19.954 20.5895C19.9789 20.579 20.0016 20.5636 20.0205 20.5442C20.0394 20.5248 20.0543 20.5018 20.0642 20.4766C20.0741 20.4513 20.0788 20.4244 20.0782 20.3973C20.0528 19.1836 19.8014 18.0029 19.3291 16.8883V16.8883ZM10.5313 11.0586C9.36585 11.0586 8.26898 10.6041 7.44378 9.77891C6.61859 8.95371 6.16409 7.85684 6.16409 6.69141C6.16409 5.52598 6.61859 4.4291 7.44378 3.60391C8.26898 2.77871 9.36585 2.32422 10.5313 2.32422C11.6967 2.32422 12.7936 2.77871 13.6188 3.60391C14.444 4.4291 14.8985 5.52598 14.8985 6.69141C14.8985 7.85684 14.444 8.95371 13.6188 9.77891C12.7936 10.6041 11.6967 11.0586 10.5313 11.0586Z" fill="#494949"/>
</svg>
