<svg width="13" height="14" viewBox="0 0 13 14" fill="none" xmlns="http://www.w3.org/2000/svg">
<path d="M6.5 0C5.78579 0 5.08762 0.211788 4.49377 0.608582C3.89993 1.00538 3.43708 1.56935 3.16377 2.2292C2.89045 2.88904 2.81894 3.61512 2.95828 4.3156C3.09761 5.01609 3.44154 5.65953 3.94656 6.16455C4.45158 6.66958 5.09502 7.0135 5.79551 7.15284C6.49599 7.29217 7.22207 7.22066 7.88191 6.94734C8.54176 6.67403 9.10574 6.21118 9.50253 5.61734C9.89932 5.02349 10.1111 4.32532 10.1111 3.61111C10.1111 2.65339 9.73066 1.73489 9.05344 1.05767C8.37623 0.380455 7.45773 0 6.5 0ZM6.5 5.77778C6.07147 5.77778 5.65257 5.65071 5.29626 5.41263C4.93996 5.17455 4.66225 4.83617 4.49826 4.44026C4.33427 4.04435 4.29136 3.60871 4.37496 3.18842C4.45857 2.76812 4.66492 2.38206 4.96794 2.07905C5.27095 1.77603 5.65701 1.56968 6.0773 1.48608C6.4976 1.40248 6.93324 1.44538 7.32915 1.60937C7.72505 1.77336 8.06344 2.05107 8.30152 2.40738C8.53959 2.76368 8.66667 3.18259 8.66667 3.61111C8.66667 4.18575 8.43839 4.73685 8.03206 5.14318C7.62574 5.54951 7.07464 5.77778 6.5 5.77778ZM13 13.7222V13C13 11.6592 12.4674 10.3733 11.5193 9.42519C10.5712 8.47708 9.28526 7.94445 7.94444 7.94445H5.05556C3.71474 7.94445 2.42884 8.47708 1.48074 9.42519C0.532637 10.3733 0 11.6592 0 13V13.7222H1.44444V13C1.44444 12.0423 1.8249 11.1238 2.50211 10.4466C3.17933 9.76935 4.09783 9.38889 5.05556 9.38889H7.94444C8.90217 9.38889 9.82067 9.76935 10.4979 10.4466C11.1751 11.1238 11.5556 12.0423 11.5556 13V13.7222H13Z" fill="#81858B"/>
</svg>
