<svg width="720" height="720" viewBox="0 0 720 720" fill="none" xmlns="http://www.w3.org/2000/svg">
<rect x="360.238" y="94" width="350.665" height="221.117" rx="5" transform="rotate(45 360.238 94)" fill="#0687AF"/>
<g filter="url(#filter0_d_462_824)">
<rect x="516.311" y="250.353" width="350.665" height="221.117" rx="5" transform="rotate(135 516.311 250.353)" fill="#494949"/>
</g>
<path d="M144.56 559.2L158.24 612H148.8L145.6 598.56H129.92L126.8 612H118L132.64 559.2H144.56ZM131.36 592.64H144.24L137.76 565.2L131.36 592.64ZM185.754 557.6C190.341 557.6 194.021 558.48 196.794 560.24C199.621 562 201.034 564.827 201.034 568.72C201.034 570.64 200.474 572.213 199.354 573.44C198.234 574.613 196.714 575.2 194.794 575.2C192.928 575.2 191.541 574.773 190.634 573.92C191.061 572.747 191.274 571.413 191.274 569.92C191.274 565.227 189.194 562.88 185.034 562.88C183.008 562.88 181.408 563.387 180.234 564.4C179.114 565.36 178.554 566.8 178.554 568.72C178.554 570.48 179.008 572.08 179.914 573.52C180.821 574.96 181.941 576.24 183.274 577.36C184.661 578.48 186.528 579.84 188.874 581.44C191.648 583.307 193.861 584.987 195.514 586.48C197.221 587.92 198.661 589.68 199.834 591.76C201.008 593.787 201.594 596.133 201.594 598.8C201.594 603.547 199.968 607.227 196.714 609.84C193.461 612.453 189.248 613.76 184.074 613.76C179.381 613.76 175.488 612.827 172.394 610.96C169.354 609.04 167.834 606.08 167.834 602.08C167.834 600.16 168.394 598.613 169.514 597.44C170.634 596.213 172.128 595.6 173.994 595.6C175.861 595.6 177.248 596.027 178.154 596.88C177.781 597.947 177.594 599.28 177.594 600.88C177.594 605.947 179.994 608.48 184.794 608.48C187.141 608.48 189.061 607.84 190.554 606.56C192.048 605.227 192.794 603.44 192.794 601.2C192.794 599.44 192.341 597.84 191.434 596.4C190.528 594.96 189.381 593.68 187.994 592.56C186.661 591.44 184.821 590.08 182.474 588.48C179.701 586.613 177.461 584.96 175.754 583.52C174.101 582.027 172.688 580.267 171.514 578.24C170.341 576.16 169.754 573.787 169.754 571.12C169.754 566.853 171.248 563.547 174.234 561.2C177.274 558.8 181.114 557.6 185.754 557.6ZM253.409 559.2V612H244.049V588.24H226.129V612H216.769V559.2H226.129V582.32H244.049V559.2H253.409ZM285.739 557.6C290.325 557.6 294.005 558.48 296.779 560.24C299.605 562 301.019 564.827 301.019 568.72C301.019 570.64 300.459 572.213 299.339 573.44C298.219 574.613 296.699 575.2 294.779 575.2C292.912 575.2 291.525 574.773 290.619 573.92C291.045 572.747 291.259 571.413 291.259 569.92C291.259 565.227 289.179 562.88 285.019 562.88C282.992 562.88 281.392 563.387 280.219 564.4C279.099 565.36 278.539 566.8 278.539 568.72C278.539 570.48 278.992 572.08 279.899 573.52C280.805 574.96 281.925 576.24 283.259 577.36C284.645 578.48 286.512 579.84 288.859 581.44C291.632 583.307 293.845 584.987 295.499 586.48C297.205 587.92 298.645 589.68 299.819 591.76C300.992 593.787 301.579 596.133 301.579 598.8C301.579 603.547 299.952 607.227 296.699 609.84C293.445 612.453 289.232 613.76 284.059 613.76C279.365 613.76 275.472 612.827 272.379 610.96C269.339 609.04 267.819 606.08 267.819 602.08C267.819 600.16 268.379 598.613 269.499 597.44C270.619 596.213 272.112 595.6 273.979 595.6C275.845 595.6 277.232 596.027 278.139 596.88C277.765 597.947 277.579 599.28 277.579 600.88C277.579 605.947 279.979 608.48 284.779 608.48C287.125 608.48 289.045 607.84 290.539 606.56C292.032 605.227 292.779 603.44 292.779 601.2C292.779 599.44 292.325 597.84 291.419 596.4C290.512 594.96 289.365 593.68 287.979 592.56C286.645 591.44 284.805 590.08 282.459 588.48C279.685 586.613 277.445 584.96 275.739 583.52C274.085 582.027 272.672 580.267 271.499 578.24C270.325 576.16 269.739 573.787 269.739 571.12C269.739 566.853 271.232 563.547 274.219 561.2C277.259 558.8 281.099 557.6 285.739 557.6ZM345.553 559.2L344.993 565.12H332.673V612H323.313V565.12H310.753V559.2H345.553ZM375.343 557.6C388.996 557.6 395.823 566.693 395.823 584.88C395.823 604.133 388.996 613.76 375.343 613.76C367.876 613.76 362.569 611.28 359.423 606.32C356.329 601.36 354.783 594.533 354.783 585.84C354.783 577.307 356.383 570.48 359.583 565.36C362.836 560.187 368.089 557.6 375.343 557.6ZM375.343 608.16C379.609 608.16 382.409 606.053 383.743 601.84C385.076 597.573 385.743 592.107 385.743 585.44C385.743 579.093 385.049 573.813 383.663 569.6C382.276 565.333 379.503 563.2 375.343 563.2C371.129 563.2 368.329 565.333 366.943 569.6C365.556 573.813 364.863 579.093 364.863 585.44C364.863 592.107 365.529 597.573 366.863 601.84C368.196 606.053 371.023 608.16 375.343 608.16ZM429.827 557.6C443.48 557.6 450.307 566.693 450.307 584.88C450.307 604.133 443.48 613.76 429.827 613.76C422.36 613.76 417.054 611.28 413.907 606.32C410.814 601.36 409.267 594.533 409.267 585.84C409.267 577.307 410.867 570.48 414.067 565.36C417.32 560.187 422.574 557.6 429.827 557.6ZM429.827 608.16C434.094 608.16 436.894 606.053 438.227 601.84C439.56 597.573 440.227 592.107 440.227 585.44C440.227 579.093 439.534 573.813 438.147 569.6C436.76 565.333 433.987 563.2 429.827 563.2C425.614 563.2 422.814 565.333 421.427 569.6C420.04 573.813 419.347 579.093 419.347 585.44C419.347 592.107 420.014 597.573 421.347 601.84C422.68 606.053 425.507 608.16 429.827 608.16ZM484.311 557.6C497.965 557.6 504.791 566.693 504.791 584.88C504.791 604.133 497.965 613.76 484.311 613.76C476.845 613.76 471.538 611.28 468.391 606.32C465.298 601.36 463.751 594.533 463.751 585.84C463.751 577.307 465.351 570.48 468.551 565.36C471.805 560.187 477.058 557.6 484.311 557.6ZM484.311 608.16C488.578 608.16 491.378 606.053 492.711 601.84C494.045 597.573 494.711 592.107 494.711 585.44C494.711 579.093 494.018 573.813 492.631 569.6C491.245 565.333 488.471 563.2 484.311 563.2C480.098 563.2 477.298 565.333 475.911 569.6C474.525 573.813 473.831 579.093 473.831 585.44C473.831 592.107 474.498 597.573 475.831 601.84C477.165 606.053 479.991 608.16 484.311 608.16ZM554.316 573.68C554.316 577.307 553.382 580.4 551.516 582.96C549.702 585.52 547.196 587.253 543.996 588.16L557.916 612H547.676L533.436 586.72C533.116 586.133 532.956 585.6 532.956 585.12C536.956 585.12 539.916 584.24 541.836 582.48C543.756 580.667 544.716 577.84 544.716 574C544.716 570.8 543.889 568.427 542.236 566.88C540.636 565.28 538.156 564.48 534.796 564.48C533.142 564.48 531.436 564.613 529.676 564.88V612H520.316V559.52C526.609 559.093 531.622 558.88 535.356 558.88C547.996 558.88 554.316 563.813 554.316 573.68ZM597.616 559.2V565.12H580.176V581.92H595.216V587.84H580.176V606.08H598.736L598.176 612H570.816V559.2H597.616Z" fill="#494949"/>
<defs>
<filter id="filter0_d_462_824" x="92" y="78.0001" width="444.311" height="444.311" filterUnits="userSpaceOnUse" color-interpolation-filters="sRGB">
<feFlood flood-opacity="0" result="BackgroundImageFix"/>
<feColorMatrix in="SourceAlpha" type="matrix" values="0 0 0 0 0 0 0 0 0 0 0 0 0 0 0 0 0 0 127 0" result="hardAlpha"/>
<feOffset dy="4"/>
<feGaussianBlur stdDeviation="10"/>
<feComposite in2="hardAlpha" operator="out"/>
<feColorMatrix type="matrix" values="0 0 0 0 0 0 0 0 0 0 0 0 0 0 0 0 0 0 0.25 0"/>
<feBlend mode="normal" in2="BackgroundImageFix" result="effect1_dropShadow_462_824"/>
<feBlend mode="normal" in="SourceGraphic" in2="effect1_dropShadow_462_824" result="shape"/>
</filter>
</defs>
</svg>
